<?xml version="1.0" encoding="UTF-8" standalone="no"?>
<!-- Created with Inkscape (http://www.inkscape.org/) -->

<svg
   xmlns:dc="http://purl.org/dc/elements/1.1/"
   xmlns:cc="http://creativecommons.org/ns#"
   xmlns:rdf="http://www.w3.org/1999/02/22-rdf-syntax-ns#"
   xmlns:svg="http://www.w3.org/2000/svg"
   xmlns="http://www.w3.org/2000/svg"
   xmlns:sodipodi="http://sodipodi.sourceforge.net/DTD/sodipodi-0.dtd"
   xmlns:inkscape="http://www.inkscape.org/namespaces/inkscape"
   width="13.229167mm"
   height="13.229167mm"
   viewBox="0 0 13.229167 13.229167"
   version="1.1"
   id="svg14090"
   inkscape:version="0.92.3 (2405546, 2018-03-11)"
   sodipodi:docname="icons.svg">
  <defs
     id="defs14084" />
  <sodipodi:namedview
     id="base"
     pagecolor="#ffffff"
     bordercolor="#666666"
     borderopacity="1.0"
     inkscape:pageopacity="0.0"
     inkscape:pageshadow="2"
     inkscape:zoom="5.6"
     inkscape:cx="27.271763"
     inkscape:cy="27.455282"
     inkscape:document-units="mm"
     inkscape:current-layer="layer1"
     showgrid="false"
     inkscape:window-width="1920"
     inkscape:window-height="1057"
     inkscape:window-x="1072"
     inkscape:window-y="375"
     inkscape:window-maximized="1" />
  <metadata
     id="metadata14087">
    <rdf:RDF>
      <cc:Work
         rdf:about="">
        <dc:format>image/svg+xml</dc:format>
        <dc:type
           rdf:resource="http://purl.org/dc/dcmitype/StillImage" />
        <dc:title></dc:title>
      </cc:Work>
    </rdf:RDF>
  </metadata>
  <g
     inkscape:label="Layer 1"
     inkscape:groupmode="layer"
     id="layer1"
     transform="translate(-16.192916,-0.41720511)">
    <path
       sodipodi:type="star"
       style="opacity:1;fill-opacity:1;fill-rule:nonzero;stroke:none;stroke-width:0.31241348;stroke-linecap:round;stroke-linejoin:round;stroke-miterlimit:4;stroke-dasharray:1.24965392, 0.62482696;stroke-dashoffset:0;stroke-opacity:1;paint-order:normal"
       id="star"
       sodipodi:sides="5"
       sodipodi:cx="22.807499"
       sodipodi:cy="7.6959252"
       sodipodi:r1="6.9549842"
       sodipodi:r2="2.7819941"
       sodipodi:arg1="-1.5707963"
       sodipodi:arg2="-0.9424778"
       inkscape:flatsided="false"
       inkscape:rounded="0"
       inkscape:randomized="0"
       d="m 22.807499,0.74094105 1.635215,4.70430365 4.979368,0.1014724 -3.968749,3.0088916 1.442203,4.7670173 -4.088037,-2.844707 -4.088037,2.844707 1.442203,-4.7670173 -3.968749,-3.008892 4.979368,-0.101472 z"
       inkscape:transform-center-x="-2.8648079e-005"
       inkscape:transform-center-y="-0.6641421" />
    <g
       id="fork"
       transform="matrix(1.4700822,0,0,1.4700822,-250.91708,-24.680477)"
       style="fill-opacity:1;stroke:none;stroke-width:0.68023407;stroke-opacity:1">
      <path
         style="color:#000000;font-style:normal;font-variant:normal;font-weight:normal;font-stretch:normal;font-size:medium;line-height:normal;font-family:sans-serif;font-variant-ligatures:normal;font-variant-position:normal;font-variant-caps:normal;font-variant-numeric:normal;font-variant-alternates:normal;font-feature-settings:normal;text-indent:0;text-align:start;text-decoration:none;text-decoration-line:none;text-decoration-style:solid;text-decoration-color:#000000;letter-spacing:normal;word-spacing:normal;text-transform:none;writing-mode:lr-tb;direction:ltr;text-orientation:mixed;dominant-baseline:auto;baseline-shift:baseline;text-anchor:start;white-space:normal;shape-padding:0;clip-rule:nonzero;display:inline;overflow:visible;visibility:visible;opacity:1;isolation:auto;mix-blend-mode:normal;color-interpolation:sRGB;color-interpolation-filters:linearRGB;solid-color:#000000;solid-opacity:1;vector-effect:none;fill-opacity:1;fill-rule:nonzero;stroke:none;stroke-width:0.68023407;stroke-linecap:butt;stroke-linejoin:miter;stroke-miterlimit:4;stroke-dasharray:none;stroke-dashoffset:0;stroke-opacity:1;color-rendering:auto;image-rendering:auto;shape-rendering:auto;text-rendering:auto;enable-background:accumulate"
         d="m 189.86943,24.255834 a 0.82682293,0.82682293 0 0 1 -0.65629,-0.326596 h -1.5844 l -2.38332,-3.715018 h -2.06292 a 0.82682293,0.82682293 0 0 1 -0.65836,0.327112 0.82682293,0.82682293 0 0 1 -0.82682,-0.826823 0.82682293,0.82682293 0 0 1 0.82682,-0.826823 0.82682293,0.82682293 0 0 1 0.65732,0.326595 h 2.61121 3.41943 a 0.82682285,0.82682285 0 0 1 0.65733,-0.326595 0.82682285,0.82682285 0 0 1 0.82682,0.826823 0.82682285,0.82682285 0 0 1 -0.82682,0.826823 0.82682285,0.82682285 0 0 1 -0.65733,-0.327112 h -2.77812 l 1.74149,2.71508 h 1.03612 a 0.82682293,0.82682293 0 0 1 0.65784,-0.327112 0.82682293,0.82682293 0 0 1 0.82682,0.826823 0.82682293,0.82682293 0 0 1 -0.82682,0.826823 z"
         id="path1250-5"
         inkscape:connector-curvature="0" />
    </g>
    <g
       id="flag"
       transform="matrix(0.55189066,0,0,0.55182481,-63.343796,-118.80119)"
       style="fill-opacity:1;stroke:none;stroke-width:1.81206131">
      <path
         id="path4562"
         d="m 145.80205,216.04678 v 23.97063 l 2.66356,-0.003 v -10.80238 c 0.37409,-0.15699 0.7408,-0.293 1.09463,-0.3909 0.39499,-0.10929 0.77824,-0.18417 1.15194,-0.22985 0.37373,-0.0456 0.73744,-0.0624 1.09409,-0.0551 0.35661,0.007 0.70611,0.0381 1.04984,0.0879 0.68746,0.0994 1.35297,0.27297 2.01401,0.47826 0.66105,0.20528 1.3174,0.44246 1.98561,0.66877 0.6682,0.22632 1.34874,0.44245 2.05767,0.60492 0.35447,0.0812 0.71604,0.14881 1.08698,0.19817 0.37094,0.0493 0.75107,0.0805 1.14267,0.0874 0.39162,0.007 0.79499,-0.0109 1.21146,-0.0567 0.41647,-0.0463 0.84617,-0.12158 1.29171,-0.23148 0.44553,-0.10992 0.90683,-0.25419 1.38561,-0.4384 0.43983,-0.16922 0.89905,-0.38131 1.37033,-0.62183 v -12.32094 c -0.47128,0.24053 -0.9305,0.45316 -1.37033,0.62238 -0.47878,0.18422 -0.94008,0.32848 -1.38561,0.4384 -0.44554,0.1099 -0.87524,0.18527 -1.29171,0.23148 -0.41647,0.0463 -0.81984,0.0632 -1.21146,0.0562 -0.3916,-0.007 -0.77173,-0.0374 -1.14267,-0.0868 -0.37094,-0.0494 -0.73251,-0.11748 -1.08698,-0.19872 -0.70893,-0.16247 -1.38947,-0.37805 -2.05767,-0.60437 -0.66821,-0.22631 -1.32456,-0.46295 -1.98561,-0.66824 -0.66104,-0.20529 -1.32655,-0.37886 -2.01401,-0.47825 -0.34373,-0.0498 -0.69323,-0.0811 -1.04984,-0.0884 -0.35665,-0.007 -0.72036,0.01 -1.09409,0.0551 -0.3737,0.0457 -0.75695,0.12002 -1.15194,0.2293 -0.35383,0.0979 -0.72054,0.23445 -1.09463,0.39144 v -0.84785 z"
         style="opacity:1;fill-opacity:1;fill-rule:nonzero;stroke:none;stroke-width:5.79859591;stroke-linecap:butt;stroke-linejoin:round;stroke-miterlimit:4;stroke-dasharray:none;stroke-dashoffset:0;stroke-opacity:1;paint-order:markers stroke fill"
         inkscape:connector-curvature="0"
         sodipodi:nodetypes="ccccccccscccccccccccccscccccccccc" />
    </g>
  </g>
</svg>
